<svg xmlns="http://www.w3.org/2000/svg" xmlns:xlink="http://www.w3.org/1999/xlink" width="512" zoomAndPan="magnify" viewBox="0 0 384 383.999986" height="512" preserveAspectRatio="xMidYMid meet" version="1.2"><g id="b139e4f440"><path style="fill-rule:nonzero;fill:#ffffff;fill-opacity:1;stroke-width:1;stroke-linecap:butt;stroke-linejoin:miter;stroke:#733c32;stroke-opacity:1;stroke-miterlimit:10;" d="M 7.25396 -3.627006 C 7.25396 0.379152 4.005947 3.626837 0.000118164 3.626837 C -4.006039 3.626837 -7.254053 0.379152 -7.254053 -3.627006 C -7.254053 -3.627006 7.25396 -3.627006 7.25396 -3.627006 Z M 7.25396 -3.627006 " transform="matrix(11.876249,0,0,11.876249,191.99469,223.719753)"/><path style="fill:none;stroke-width:1;stroke-linecap:butt;stroke-linejoin:miter;stroke:#733c32;stroke-opacity:1;stroke-miterlimit:10;" d="M -0.360956 -1.621967 C -0.360956 -1.621967 0.489941 -1.621967 0.489941 -1.621967 C 1.384913 -1.621967 2.111152 -0.895069 2.111152 -0.0000976791 C 2.111152 0.895861 1.384913 1.6221 0.489941 1.6221 C 0.489941 1.6221 -2.111101 1.6221 -2.111101 1.6221 " transform="matrix(11.876249,0,0,11.876249,280.294615,219.016785)"/><path style="fill:none;stroke-width:1;stroke-linecap:butt;stroke-linejoin:miter;stroke:#733c32;stroke-opacity:1;stroke-miterlimit:10;" d="M 17.059072 33.653943 C 17.059072 33.653943 31.747001 33.653943 31.747001 33.653943 " transform="matrix(11.876249,0,0,11.876249,-93.035287,-110.893542)"/></g></svg>